<svg width="16" height="16" version="1.1" viewBox="0 0 16 16" xmlns="http://www.w3.org/2000/svg">
 <g transform="matrix(.026958 0 0 .026958 -5.463 -5.2796)" fill="#3eb489">
  <g fill="#3eb489">
   <path class="st0" d="m728.31 397.32-112.87-26.02c-12.44-2.87-20.43 4.57-17.55 16.8l14.25 60.49-14.82-2.44-21.93-96.46c-3.17-13.95-18.2-28.38-33.91-32.46l-288.92-75.12c-24.45-6.36-44.92 1.96-44.92 19.08v306.87c0 25.3 25.63 46.87 56.03 47.43l195.81 3.6 13.52 101.19c3.15 23.6 24.1 41.56 45.95 39.57l234.97-21.35c14.11-1.28 21.04-17.28 15.88-35.38l-41.6-145.87 51.43 4.16c10.42 0.84 15.39-8.89 11.31-21.52l-38.33-118.8c-3.52-10.88-14.32-21.47-24.3-23.77zm-452.36 162.47-10.33-276.47 274.83 64.68 18.93 91.92-91.88-15.13c-18.92-3.11-32.87 8.06-30.57 25.3l15.94 119.46zm291.31-81.68 20.36 98.87-85.56-4.72-16.83-105.19zm165.7 215.73-209.87 9.89-13.39-83.7 95.93 1.76c17.73 0.33 28.24-14.92 23.98-33.64l-23.83-104.85 15.03 2.02 8.94 37.93c3.42 14.53 17.3 27.42 30.59 28.5l35.34 2.86zm-47.34-176.78-23.32-2.66-6.21-24.33 23.14 3.12zm73.59 8.39-41.43-4.72-9.12-31.95c-4.03-14.14-17.67-27.18-30.72-29.33l-30.96-5.1-12.26-48.06 93.73 19.15z" fill="#3eb489"/>
  </g>
 </g>
</svg>
