<svg data-v-937f1cec="" viewBox="0 0 223 44" fill="none" xmlns="http://www.w3.org/2000/svg" class="max-w-200">
    <path data-v-937f1cec="" d="M67.302 33.251V18.888h6.282v-3.176h-6.352c-.212-2.54 1.235-3.282 4.023-3.282h2.329V9.607h-1.73c-4.975 0-7.904 2.259-8.328 6.105h-2.682v3.176h2.647v14.363h3.811zm12.21 0V9.607h-3.81V33.25h3.81zM90.34 33.604c4.516 0 6.845-2.823 7.41-5.788h.212v5.435h3.493V15.712h-3.776v8.681c0 3.812-1.8 5.788-5.681 5.788-3.706 0-5.223-1.659-5.223-4.94v-9.529h-3.776v10.552c0 4.058 2.4 7.34 7.34 7.34zM108.729 13.665V9.607h-3.811v4.058h3.811zm0 19.586V15.712h-3.811v17.539h3.811zM119.987 33.604c3.952 0 6.528-1.906 7.27-5.4h.247v5.047h3.493V9.607h-3.811v10.87h-.212c-.706-2.965-3.07-5.118-7.234-5.118-5.329 0-8.364 3.67-8.364 9.14 0 5.4 3.07 9.105 8.611 9.105zm-4.764-9.105c0-4.235 2.188-5.681 5.858-5.681 3.917 0 6.105 1.835 6.105 5.575v.283c0 3.67-2.294 5.434-6.035 5.434-3.776 0-5.928-1.411-5.928-5.61zM143.379 33.604c5.258 0 9.105-2.964 9.105-7.34v-.389h-3.776v.247c0 2.718-1.977 4.059-5.4 4.059-3.952 0-5.717-1.906-5.717-5.682 0-3.846 1.765-5.717 5.717-5.717 3.423 0 5.4 1.341 5.4 4.058v.212h3.776V22.7c0-4.376-3.847-7.34-9.105-7.34-5.788 0-9.564 3.67-9.564 9.14 0 5.4 3.776 9.105 9.564 9.105zM164.266 33.604c5.858 0 9.775-3.706 9.775-9.105 0-5.47-3.917-9.14-9.775-9.14-5.823 0-9.74 3.67-9.74 9.14 0 5.4 3.917 9.105 9.74 9.105zm0-3.388c-4.235 0-6-2.011-6-5.717 0-3.74 1.765-5.787 6-5.787 4.27 0 6.034 2.047 6.034 5.787 0 3.706-1.764 5.717-6.034 5.717zM180.618 13.665V9.607h-3.811v4.058h3.811zm0 19.586V15.712h-3.811v17.539h3.811zM187.959 33.251V24.57c0-3.811 1.729-5.788 5.575-5.788 3.635 0 5.117 1.659 5.117 4.94v9.529h3.812V22.699c0-4.058-2.4-7.34-7.27-7.34-4.447 0-6.776 2.823-7.305 5.788h-.247v-5.435h-3.494v17.539h3.812zM214.152 33.604c4.94 0 8.187-1.941 8.187-5.223 0-2.894-1.906-4.305-6.07-4.835l-4.058-.564c-2.647-.353-3.353-.847-3.353-2.223 0-1.66 1.13-2.365 4.341-2.365 3.882 0 4.94 1.094 4.94 3.176v.212h3.776v-.106c0-4.164-3.246-6.317-8.61-6.317-5.4 0-8.187 2.188-8.187 5.258 0 2.93 2.011 4.34 5.328 4.764l4.8.636c2.505.352 3.352.811 3.352 2.258 0 1.553-1.023 2.259-4.446 2.259-3.67 0-5.047-.741-5.047-3.035v-.282h-3.811v.105c0 4.059 3.211 6.282 8.858 6.282zM0 21.85C0 13.418 0 9.201 1.904 6.107a12.834 12.834 0 014.203-4.203C9.201 0 13.456 0 21.964 0c8.509 0 12.763 0 15.857 1.904a12.834 12.834 0 014.203 4.203c1.904 3.094 1.904 7.31 1.904 15.743s0 12.65-1.904 15.744a12.833 12.833 0 01-4.203 4.203C34.727 43.7 30.473 43.7 21.964 43.7c-8.508 0-12.763 0-15.857-1.904a12.834 12.834 0 01-4.203-4.203C0 34.499 0 30.284 0 21.85z" fill="#ffffff"></path>
    <path data-v-937f1cec="" fill-rule="evenodd" clip-rule="evenodd" d="M16.37 16.373v10.814c0 2.973-2.433 5.407-5.406 5.407V21.78c0-2.974 2.433-5.407 5.406-5.407zM21.777 10.966h10.814c0 2.974-2.433 5.407-5.407 5.407H16.37c0-2.974 2.433-5.407 5.407-5.407z" fill="#032343"></path>
    <path data-v-937f1cec="" d="M24.48 27.21a2.726 2.726 0 100-5.453 2.726 2.726 0 000 5.452z" fill="#032343"></path>
</svg>
