<svg width="276" height="42" fill="none" xmlns="http://www.w3.org/2000/svg" class="">
    <path d="M83.402 22.62h-7.745c-.263-3.179-2.17-5.144-5.018-5.144-3.609 0-5.779 3.291-5.779 8.594 0 5.302 2.17 8.589 5.78 8.589 2.864 0 4.77-2.175 4.984-5.675h7.795c-.619 6.842-5.478 11.404-12.746 11.404-8.218 0-13.574-5.624-13.574-14.318 0-8.694 5.357-14.319 13.574-14.319 7.268 0 12.127 4.558 12.73 10.869zm9.815-6.499c1.94-2.785 4.6-4.157 7.473-4.157 6.043 0 9.915 3.71 9.915 11.028v16.547h-7.423V23.736c0-4.085-1.806-5.938-4.721-5.938-3.074 0-5.303 2.384-5.303 7.314v14.427h-7.43V1.782h7.422l-.046 14.339h.113zm38.385 15.243h7.586c-1.063 4.939-5.729 9.024-12.897 9.024-8.485 0-13.415-5.942-13.415-14.532 0-7.945 4.93-14.105 13.381-14.105 6.202 0 10.764 3.5 12.458 8.962.586 1.856.836 3.922.836 6.895h-19.349c.213 5.567 2.927 7.528 6.097 7.528 2.969-.009 4.931-1.59 5.303-3.772zm-11.241-8.427h11.784c-.476-4.081-2.927-5.938-5.883-5.938-2.957 0-5.32 1.857-5.901 5.938zm43.934-2.065h-7.109c0-2.756-1.593-3.923-4.244-3.923-2.384 0-3.659.953-3.659 2.51 0 1.906 1.697 2.383 5.779 3.445 4.826 1.255 10.128 2.509 10.128 9.066 0 5.018-4.558 8.435-11.876 8.435-7.477 0-12.09-3.078-12.09-9.618h7.527c0 2.705 1.644 4.244 4.722 4.244 2.597 0 3.922-1.008 3.922-2.6 0-2.334-2.015-2.811-6.201-3.923-4.508-1.167-9.334-2.225-9.334-8.485 0-4.826 4.453-8.272 11.136-8.272 7.055 0 11.299 3.128 11.299 9.12zm18.3 12.834v5.674c-1.28.35-2.6.526-3.927.527-6.201 0-8.907-2.509-8.907-8.748V18.116h-4.349V12.6h4.37v-7h7.402v7h5.143v5.516h-5.143v11.709c0 2.969.957 4.136 3.5 4.136a6.651 6.651 0 001.911-.255zm20.098-21.215v6.42a12.646 12.646 0 00-2.334-.268c-4.562 0-7 2.864-7 8.167v12.73h-7.423V12.6h6.846v3.818h.109c1.802-2.927 4.181-4.245 7.368-4.245.821.004 1.639.11 2.434.318zm24.923 9.92v9.756c0 3.395.264 5.57.741 7.372h-6.691a15.474 15.474 0 01-.368-3.609h-.08c-2.011 2.865-5.018 4.245-8.748 4.245-5.729 0-9.175-3.5-9.175-8.167 0-4.4 2.651-7.373 10.454-8.59a88.579 88.579 0 016.737-.744v-.953c0-3.396-1.802-4.772-4.403-4.772-2.756 0-4.345 1.535-4.454 4.081h-7.243c.268-5.143 3.977-9.279 11.668-9.279 7.69 0 11.562 3.605 11.562 10.66zm-7.159 4.77c-1.593.105-3.818.319-5.411.582-3.074.531-4.345 1.54-4.345 3.714 0 2.015 1.376 3.395 3.977 3.395 1.535 0 3.178-.476 4.24-1.539 1.255-1.254 1.539-2.705 1.539-5.143v-1.008zm25.267 6.525v5.674a14.96 14.96 0 01-3.923.527c-6.206 0-8.911-2.509-8.911-8.748V18.116h-4.345V12.6h4.345v-7h7.427v7h5.156v5.516h-5.144v11.709c0 2.969.954 4.136 3.5 4.136a6.626 6.626 0 001.895-.255zm20.24-2.342h7.581c-1.058 4.93-5.725 9.016-12.884 9.016-8.485 0-13.419-5.943-13.419-14.532 0-7.945 4.934-14.105 13.381-14.105 6.206 0 10.764 3.5 12.462 8.961.586 1.857.837 3.923.837 6.896h-19.371c.214 5.566 2.928 7.527 6.102 7.527 2.969 0 4.93-1.58 5.311-3.763zm-11.254-8.427h11.776c-.476-4.081-2.927-5.938-5.888-5.938-2.96 0-5.302 1.857-5.888 5.938zM54.97 12.173c-3.182 0-5.566 1.326-7.368 4.245h-.11V12.6h-6.84v6.87a19.837 19.837 0 01-2.781 1.414c.836-7.644-.519-14.068-6.461-17.446-9.79-5.57-22.185-.929-27.178 11.115C.318 23.99.807 38.009 13.942 40.359c10.752 1.92 18.317-4.11 21.068-10.555a30.207 30.207 0 005.642-1.974v11.71h7.439V26.81c-.02-1.219.14-2.434.477-3.605.108-.374.248-.737.418-1.087 1.087-2.28 3.149-3.475 6.093-3.475.783.016 1.563.106 2.329.267v-6.419a9.729 9.729 0 00-2.438-.318zM17.835 33.79c-5.039.025-7.799-3.554-7.799-9.28.056-2.028.374-4.04.946-5.988 1.003 2.865 3.62 6.817 7.008 9.037 2.3 1.506 4.893 2.606 7.423 2.848-1.865 1.853-4.22 3.37-7.578 3.383zm11.559-10.588c-.657.052-1.318.043-1.974-.025-6.967-.569-9.819-5.963-9.886-9.618-.05-2.882 1.886-5.437 4.826-5.437h.034c5.018 0 7.882 3.396 7.849 9.23a19.654 19.654 0 01-.849 5.85z" fill="#ffffff"></path>
</svg>
