<svg xmlns="http://www.w3.org/2000/svg" width="41" height="41" viewBox="0 0 41 41" fill="none">
    <rect x="0.628784" y="0.648956" width="40.0113" height="40.0113" rx="13.3371" fill="#ffffff"/>
    <path fill-rule="evenodd" clip-rule="evenodd" d="M10.6994 25.79C10.7982 25.7646 11.1547 25.5167 11.2338 25.4434C11.6244 25.0811 12.8891 24.4791 13.2074 24.285C13.3004 23.5836 13.2646 21.651 13.4888 19.5873C13.6875 17.7628 14.1561 16.1497 14.5813 15.5096C14.6524 15.4021 15.1804 15.0855 15.5086 14.8844C17.0772 13.9219 21.4103 11.2371 22.5583 11.1689C22.7079 11.1603 22.6796 11.3816 22.7033 11.4763C22.7541 11.6785 22.7137 12.5503 22.6628 12.771C22.4785 13.5706 21.9805 13.8971 21.3669 14.2408C20.9567 14.4702 19.0987 15.524 18.7989 15.8042C18.5782 16.0105 18.3442 16.2606 18.1668 16.5333C17.7554 17.1631 17.6116 17.85 17.611 18.7444C17.611 19.6665 17.6104 20.5891 17.6122 21.5118C17.6168 24.0429 17.4729 24.0839 19.0392 23.1549L20.7967 22.1439C21.0382 22.0069 21.4605 21.662 21.7587 21.7857C22.0782 21.9185 21.9718 22.6107 21.9736 23.0018C21.9788 24.4167 21.308 24.7397 20.2167 25.3521L14.9799 28.376C14.6888 28.5482 13.3946 29.2536 13.2744 29.3882C13.3825 29.5246 13.4553 29.5465 13.5933 29.658C17.4342 32.7669 23.0684 32.8663 27.1369 30.0619C28.7852 28.9255 30.3348 27.2038 31.2534 24.8951C31.715 23.7356 32.0096 22.4235 32.0576 21.0432C32.0859 20.2194 31.875 17.5207 31.4463 17.0493C31.0685 17.2399 30.6063 17.7229 30.3844 18.0655C30.0823 18.5324 29.9592 18.905 29.8021 19.5278L28.5085 24.4075C28.1058 25.9778 26.7781 26.5746 25.3494 27.3777C24.4567 27.8792 23.6098 28.3789 22.7252 28.8839C21.8436 29.3871 20.9862 29.8614 20.1283 30.3721C19.2668 30.8852 19.2663 30.3854 19.2778 29.5569C19.2876 28.8665 19.4893 28.4558 19.8423 28.0883C20.197 27.7197 21.9048 26.7918 22.3699 26.5284C24.7959 25.1516 24.3828 23.4894 24.3828 20.3193C24.3828 19.9819 24.4302 18.4671 24.3331 18.2781C24.1927 18.0043 23.9281 18.0644 23.6762 18.2111L21.7309 19.3314C21.4894 19.4689 20.6089 20.0426 20.3773 20.031C20.0017 20.012 20.0237 19.6353 20.0243 19.2979C20.0248 18.9766 19.9994 18.5959 20.0422 18.2828C20.2022 17.1146 21.1688 16.798 22.0978 16.252L28.5304 12.5486C28.6408 12.4677 28.5507 12.5371 28.6056 12.4856C28.4819 12.3146 28.1428 12.0489 27.9562 11.8882C26.3223 10.4855 24.1661 9.56512 21.947 9.30571C15.047 8.50033 9.01642 14.0375 9.21344 20.9583C9.28219 21.3962 9.31165 22.8851 9.64906 24.1307C9.71954 24.3913 10.2551 26.0257 10.6994 25.79Z" fill="#000000"/>
</svg>
